<svg width="31" height="22" viewBox="0 0 31 22" fill="none" xmlns="http://www.w3.org/2000/svg">
<path d="M1.38867 12.0188C1.18808 11.7108 1.08778 11.5567 1.03163 11.3192C0.989457 11.1407 0.989457 10.8593 1.03163 10.6808C1.08778 10.4433 1.18808 10.2892 1.38867 9.98117C3.04635 7.43549 7.98056 1 15.5 1C23.0194 1 27.9537 7.43549 29.6113 9.98117C29.8119 10.2892 29.9122 10.4433 29.9684 10.6808C30.0105 10.8593 30.0105 11.1407 29.9684 11.3192C29.9122 11.5567 29.8119 11.7108 29.6113 12.0188C27.9537 14.5645 23.0194 21 15.5 21C7.98056 21 3.04635 14.5645 1.38867 12.0188Z" stroke="#F3FFEF" stroke-width="2" stroke-linecap="round" stroke-linejoin="round"/>
<path d="M15.5 15.2857C17.9405 15.2857 19.9189 13.3669 19.9189 11C19.9189 8.63307 17.9405 6.71429 15.5 6.71429C13.0595 6.71429 11.0811 8.63307 11.0811 11C11.0811 13.3669 13.0595 15.2857 15.5 15.2857Z" stroke="#F3FFEF" stroke-width="2" stroke-linecap="round" stroke-linejoin="round"/>
</svg>
